<svg id="visual" viewBox="0 0 900 600" width="900" height="600" xmlns="http://www.w3.org/2000/svg" xmlns:xlink="http://www.w3.org/1999/xlink" version="1.1"><rect x="0" y="0" width="900" height="600" fill="#F7CACA"></rect><defs><linearGradient id="grad1_0" x1="33.3%" y1="0%" x2="100%" y2="100%"><stop offset="20%" stop-color="#f7caca" stop-opacity="1"></stop><stop offset="80%" stop-color="#f7caca" stop-opacity="1"></stop></linearGradient></defs><defs><linearGradient id="grad2_0" x1="0%" y1="0%" x2="66.7%" y2="100%"><stop offset="20%" stop-color="#f7caca" stop-opacity="1"></stop><stop offset="80%" stop-color="#f7caca" stop-opacity="1"></stop></linearGradient></defs><g transform="translate(900, 0)"><path d="M0 486.7C-52.4 450.7 -104.8 414.7 -163.4 394.5C-222 374.3 -286.7 369.8 -338 338C-389.3 306.2 -427.1 247.2 -449.7 186.3C-472.3 125.4 -479.5 62.7 -486.7 0L0 0Z" fill="#001122"></path></g><g transform="translate(0, 600)"><path d="M0 -486.7C56.4 -461.7 112.8 -436.7 172.6 -416.7C232.4 -396.7 295.6 -381.7 344.2 -344.2C392.8 -306.7 426.8 -246.7 448.1 -185.6C469.4 -124.5 478.1 -62.2 486.7 0L0 0Z" fill="#001122"></path></g></svg>